<svg xmlns="http://www.w3.org/2000/svg" width="256" height="256"><path d="M51 163a42 42 0 01-34-42c0-27 19-37 29-40v-4c0-22 15-45 34-53 23-10 48-5 65 13 6 5 10 12 14 20 6-6 15-8 23-6 11 4 19 14 21 29 11 2 34 11 34 41h0c0 27-18 37-29 41" fill="none" stroke="#000" stroke-width="8"/><path d="M82 194l-4 3 1 1 5 2m0 6l-5-4-1 1 4 7m-5 0l-2-7h-1l-1 4m-5-5l3-3v-1l-5-2m0-6l5 4v-1l-3-7m5 0l1 7h1l2-5M152 194l-4 3 1 1 5 2m0 6l-5-4-1 1 4 7m-5 0l-1-7h-2l-1 4m-5-5l4-3-1-1-5-2m0-6l5 4 1-1-4-7m5 0l1 7h2l1-5M117 133l-4 3 1 1 5 2m0 6l-5-4-1 1 4 7m-5 0l-2-7h-1l-2 4m-4-5l3-3v-1l-5-2m0-6l5 4v-1l-3-7m4 0l2 7h1l2-4" fill="none" stroke="#000" stroke-width="2" stroke-linecap="round" stroke-linejoin="round"/><path d="M163 228v-40l34-20M93 148l70 40m-35-60v80m-35-20l70-40M59 168l34 20v40m0-120l35 20 35-20m-70 0l35-20 35 20v40l34 20v40l-34 20-35-20-35 20-34-20v-40l34-20z" fill="none" stroke="#000" stroke-width="8"/></svg>